@startuml
class AddTranscriptMessage {
    + AddTranscriptMessage(format:string, metadata:AddTranscriptMessage_Metadata, results:List<AddTranscriptMessage_Result>)
    - <<const>> MESSAGE_TYPE : string = "AddTranscript"
    + message : string <<get>> <<set>>
    + format : string <<get>> <<set>>
}
class "List`1"<T> {
}
AddTranscriptMessage --> "metadata" AddTranscriptMessage_Metadata
AddTranscriptMessage --> "results<AddTranscriptMessage_Result>" "List`1"
@enduml
